<svg xmlns="http://www.w3.org/2000/svg" viewBox="0 0 55.32 21.68"><path fill="#17ff81" d="M15.38 11.55v.35a.64.64 0 010 .07 1.82 1.82 0 01-1.41 1.26h-1.23l-.09-.05h-.07l-.08-.07-.07-.06-.05-.05-.06-.08v-.06a2 2 0 01-.22-.46 4.18 4.18 0 10-5.26 5.26 1.82 1.82 0 011.28 1.74 1.64 1.64 0 01-.08.54 1.82 1.82 0 01-2.28 1.2 7.85 7.85 0 01-5.57-9.53 8.46 8.46 0 015.88-5.88 7.82 7.82 0 015.66.85V0h3.65zM11.66 19a1.9 1.9 0 101.9-1.89 1.9 1.9 0 00-1.9 1.89z"/><path d="M20.51 11a1.51 1.51 0 011.26.62V9.71H23v5.41h-1.23v-.58a1.42 1.42 0 01-1.26.64 1.89 1.89 0 01-1.79-2.11A1.88 1.88 0 0120.51 11zm.37 1.09a.9.9 0 00-.89 1 .9.9 0 101.78 0 .92.92 0 00-.89-1zm4.86 3.11a2 2 0 01-2.06-2.1 2 2 0 012.06-2.1 1.92 1.92 0 012 2 2.19 2.19 0 010 .36h-2.82a.75.75 0 00.77.78.66.66 0 00.65-.39h1.33a1.91 1.91 0 01-1.93 1.43zm-.82-2.49h1.57a.7.7 0 00-.77-.7.77.77 0 00-.8.7zM28 11l1.44 4.08H31L32.47 11h-1.33l-.88 3-.89-3zm6.77 4.14a2 2 0 01-2.06-2.1 2 2 0 012.1-2.04 1.92 1.92 0 012 2v.36H34a.75.75 0 00.77.78.66.66 0 00.65-.39h1.33a1.9 1.9 0 01-1.94 1.43zM34 12.69h1.56a.7.7 0 00-.77-.7.76.76 0 00-.79.7zm3.5 2.43h1.24V9.71H37.5zm2.35-1.42a1.26 1.26 0 001.44 1.42h.63v-1.06h-.44c-.28 0-.38-.1-.38-.34v-1.64h.82V11h-.82v-1h-1.25v1h-.5v1h.5zM42.5 10a.74.74 0 011.5 0 .68.68 0 01-.74.67.69.69 0 01-.76-.67zm.12 1h1.25v4.08h-1.25zm4 4.14a2 2 0 01-2.1-2.1 2.12 2.12 0 014.23 0 2 2 0 01-2.12 2.14zm0-1.08a.9.9 0 00.86-1c0-.69-.41-1-.85-1s-.85.33-.85 1 .38 1 .84 1zm-26.57 4.26a.91.91 0 01.69.29 1 1 0 01.27.76 1.06 1.06 0 01-.27.76.92.92 0 01-.69.3.88.88 0 01-.42-.11.86.86 0 01-.29-.31v.39h-.42v-2.75h.42v1.06a.86.86 0 01.29-.28.7.7 0 01.42-.11zm.35 1.55a.73.73 0 00.18-.51.64.64 0 00-.18-.49.57.57 0 00-.44-.18.58.58 0 00-.44.18.8.8 0 000 1 .6.6 0 00.85 0zm1.18 1.49H22l1.25-3h-.43l-.6 1.56-.58-1.56h-.47l.81 2zm3.35-1.3a1.49 1.49 0 010-1.91 1.08 1.08 0 01.84-.37.88.88 0 01.76.36v-.33h.79v2.57a1.37 1.37 0 01-.3.91.81.81 0 01-.4.28 1.52 1.52 0 01-.6.11 1.56 1.56 0 01-.94-.25.94.94 0 01-.39-.73h.78c.07.19.26.29.55.29a.48.48 0 00.36-.15.61.61 0 00.15-.46V20a.89.89 0 01-.78.4 1.08 1.08 0 01-.82-.34zm1.43-.49a.73.73 0 000-.94.55.55 0 00-.78 0 .6.6 0 00-.17.47.58.58 0 00.17.47.55.55 0 00.78 0zM28 17.81v2.59h.79v-1.23a.59.59 0 01.14-.45.51.51 0 01.41-.13h.19v-.81a.83.83 0 00-.74.51v-.48zm3.07 2.62a1.24 1.24 0 01-.93-.37 1.3 1.3 0 01-.37-1 1.27 1.27 0 01.36-1 1.3 1.3 0 01.93-.36 1.34 1.34 0 011 .35 1.28 1.28 0 01.37 1 2.09 2.09 0 010 .25h-1.82a.45.45 0 00.43.39.91.91 0 00.23 0l.1-.06a.47.47 0 00.1-.1h.86a1.11 1.11 0 01-.45.63 1.32 1.32 0 01-.79.27zm.33-1.86a.55.55 0 00-.33-.11.54.54 0 00-.32.11.55.55 0 00-.16.3h1a.39.39 0 00-.16-.3zm2.6 1.86a1.25 1.25 0 01-.93-.37 1.3 1.3 0 01-.36-1 1.27 1.27 0 01.36-1 1.28 1.28 0 01.93-.36 1.34 1.34 0 01.95.35 1.28 1.28 0 01.37 1 1.06 1.06 0 010 .25h-1.78a.47.47 0 00.44.39.83.83 0 00.22 0l.11-.06.09-.1h.86a1.14 1.14 0 01-.45.63 1.39 1.39 0 01-.81.27zm.34-1.86a.55.55 0 00-.33-.11.52.52 0 00-.32.11.49.49 0 00-.16.3h1a.43.43 0 00-.16-.3zm1.49-.76v2.59h.8V19a.52.52 0 01.13-.39.5.5 0 01.86.39v1.4h.79v-1.52a1.08 1.08 0 00-.28-.8.93.93 0 00-.72-.3.82.82 0 00-.78.41v-.38zm5.44.34a.85.85 0 01.76-.37 1.06 1.06 0 01.83.37 1.49 1.49 0 010 1.91 1.09 1.09 0 01-.83.37.86.86 0 01-.76-.41v1.61h-.8v-3.82h.8zm1 1.43a.64.64 0 00.17-.47.65.65 0 00-.17-.48.55.55 0 00-.78 0 .6.6 0 00-.17.47.65.65 0 00.17.48.55.55 0 00.78 0zm1.64.48a1.49 1.49 0 010-1.91 1.06 1.06 0 01.83-.37.87.87 0 01.76.36v-.33h.8v2.59h-.8V20a.89.89 0 01-.77.41 1.09 1.09 0 01-.84-.35zm1.42-.49a.62.62 0 00.18-.47.65.65 0 00-.18-.47.55.55 0 00-.78 0 .61.61 0 00-.18.47.58.58 0 00.18.47.54.54 0 00.78 0zM47 17.81v2.59h.8v-1.23a.59.59 0 01.13-.45.52.52 0 01.41-.13h.2v-.81a.82.82 0 00-.74.51v-.48zm2 0v2.59h.79v-1.23a.59.59 0 01.14-.45.52.52 0 01.41-.13h.2v-.81a.85.85 0 00-.75.51v-.48zm2.18 2.25a1.22 1.22 0 01-.4-1 1.24 1.24 0 01.39-1 1.47 1.47 0 011.93 0 1.38 1.38 0 010 1.92 1.33 1.33 0 01-1 .37 1.32 1.32 0 01-.98-.29zm1.34-.48a.64.64 0 00.16-.48.69.69 0 00-.16-.48.48.48 0 00-.39-.16.46.46 0 00-.38.16.65.65 0 00-.16.48.6.6 0 00.16.48.52.52 0 00.39.17.52.52 0 00.38-.17zm2.34 0v-1.11h.52v-.66h-.58v-.63H54v.63h-.24v.66H54v1.07a.79.79 0 00.24.66 1.06 1.06 0 00.68.2h.4v-.68H55q-.2 0-.2-.18z"/></svg>